<svg xmlns="http://www.w3.org/2000/svg" width="589" height="697" fill="none" viewBox="0 0 589 697">
  <g clip-path="url(#a)">
    <path fill="#FBEDE6" fill-rule="evenodd" d="m350.011 528.398-5.383 39.016c-19.647-2.937-40.336-6.512-62.066-10.724l-2.42-.471.479.091a1162.845 1162.845 0 0 0-11.546-17.47l3.674-.549c11.213-1.652 25.901-3.61 44.064-5.873l3.117-.388 6.292-.773c.12.011.243.002.366-.029l.09-.027 4.84-.59 10.102-1.217 8.391-.996Zm-78.813-411.117.146 2.162.018.143c.025.142.072.279.14.405l.073.121 3.623 5.257 10.646 15.487 5.806 8.503 2.503 3.718.709 1.084-.041.093a6.13 6.13 0 0 1-.458.779c-.435.646-1.084 1.456-1.942 2.424l-.238.268-.511.56-.55.59-.528.554c-.719.749-1.523 1.559-2.411 2.432l-.452.443-.945.914-.898.859-1.433 1.351-1.438 1.336-1.448 1.329-1.465 1.331-1.539 1.386-2.1 1.871c-.504.449-.577 1.253-.162 1.799.414.544 1.161.623 1.665.175l2.152-1.916c13.056-11.678 18.163-17.251 16.943-19.612l-.041-.074-.168-.271-.462-.715-.541-.815-1.862-2.765c2.127.427 4.303.645 6.507.645 3.049 0 6.005-.416 8.812-1.198a562.272 562.272 0 0 1 2.227 16.499c5.076 42.273 4.937 84.177.566 92.486-3.83 7.281-23.533 13.529-46.399 14.379l-.694.025-1.421.039c-27.697.618-53.532-6.375-69.882-20.9-.504-.449-1.251-.37-1.666.175a1.357 1.357 0 0 0-.085 1.498l.646.95c18.637 27.087 42.411 44.139 71.322 51.154l.878.21 1.956 13.484-23.411 42.413-92.016-53.557-3.622-108.916-.01-.131-.016-.09c3.898-1.669 7.512-4.36 10.834-8.072a1.353 1.353 0 0 0-.029-1.807 1.125 1.125 0 0 0-1.675.031c-7.851 8.776-17.313 11.355-28.576 7.772-7.588-2.413-14.778-11.275-20.036-23.5-4.561-10.604-6.807-22.078-5.498-27.148 1.052-4.076 6.626-9.539 14.337-14.505l.423-.269.873-.547.89-.543.781-.462c7.792-4.565 15.422-7.295 17.821-6.438 3.379 1.207 9.558 7.358 18.316 18.345l1.21 1.527.801 1.022.804 1.034.078.092c.691.745 1.893.292 2.005-.755l.008-.128.009-.437 34.15-18.519c1.037 17.833 15.573 31.941 33.321 31.941 18.236 0 33.081-14.893 33.375-33.418l.005-.563-.005-.562c-.016-1-.074-1.988-.172-2.965l-.082-.73 9.549-.767Zm-42.67-26.402c15.238 0 27.89 11.131 30.512 25.781a1.334 1.334 0 0 0-.014.317c.013.199.069.385.158.546a32.08 32.08 0 0 1 .357 4.782c0 17.339-13.869 31.426-31.013 31.426-17.143 0-31.012-14.087-31.012-31.426 0-17.338 13.869-31.426 31.012-31.426Zm66.43-6.653c5.831 18.168 10.505 38.874 13.964 61.178a30.678 30.678 0 0 1-8.426 1.173c-2.6 0-5.158-.324-7.629-.957l-.617-.165-.399-.117-4.397-6.43-13.774-20.023-1.178-17.277c4.234-8.969 12.379-15.353 21.918-17.278l.538-.104Zm-20.983-46.08c6.855 10.276 12.922 23.05 18.165 37.75-5.802-1.62-12.811-1.648-17.75-.021-.626.206-.977.92-.787 1.595.191.674.852 1.055 1.478.849 4.986-1.643 12.477-1.428 18.107.57.328.956.653 1.921.974 2.895-8.943 1.753-16.775 7.162-21.699 14.908l-.265.425-.193-2.82-.015-.13c-.104-.637-.641-1.098-1.252-1.05-.611.049-1.08.59-1.096 1.237l.003.13 1.378 20.249-9.781.785c-3.058-15.371-16.305-26.96-32.231-27.19l-.483-.004-.551.004c-17.729.293-32.119 14.661-32.803 32.638l-.017.547-34.04 18.459 1.314-63.323 1.391-.071c39.537-2.172 75.582-14.508 108.111-37.003l.985-.685 1.057-.744Z" clip-rule="evenodd"/>
    <path fill="#fff" fill-rule="evenodd" d="m147.987 309 93.611 54.487 24.211-43.861 20.257 20.612 51.507 4.535c26.877 2.366 52.097 14.97 71.154 35.56 78.31 84.605 130.744 147.437 157.299 188.494a74.32 74.32 0 0 1 2.076 3.394c15.302 22.579 19.753 45.574 17.175 54.578-4.463 15.598-42.594 58.512-127.364 22.216l.003.029c-143.594 35.4-225.31 48.416-245.15 39.049l-.577-.278c-9.564-4.71-26.438-17.632-50.624-38.768l-78.081-.003-73.67-151.23a95.857 95.857 0 0 1-4.936-12.203c-15.502-47.426 7.168-99.39 50.693-116.822l1.325-.517 72.337-27.541L147.987 309Zm195.455 261.287 5.783-41.907-7.314.872c-22.755 2.738-47.404 5.937-73.946 9.599l-2.156.298 11.939 19.761c23.06 4.504 44.958 8.297 65.694 11.377ZM213.377 140.701c13.075 0 23.674 11.439 23.674 25.549 0 14.111-10.599 25.55-23.674 25.55-13.074 0-23.674-11.439-23.674-25.55 0-14.11 10.6-25.549 23.674-25.549Z" clip-rule="evenodd"/>
    <path fill="#121216" fill-rule="evenodd" d="m84.686 648.324-.066-.119-73.67-151.23a97.295 97.295 0 0 1-5.005-12.373c-14.402-44.063 3.694-91.988 40.777-113.298.09-.069.188-.126.294-.168a84.018 84.018 0 0 1 10.327-4.978l1.343-.526 71.953-27.395 18.336-31.023-3.616-108.699c-5.427 1.717-11.367 1.555-17.792-.489-8.386-2.666-15.999-12.048-21.515-24.875-2.543-5.912-4.398-12.081-5.352-17.431a1.196 1.196 0 0 1-.573-.545l-.987-1.87-1.415-2.697-1.766-3.396-1.226-2.381c-13.016-25.37-19.495-41.365-19.495-48.308 0-5.873 7.843-21.588 18.932-38.43l.344-.52c12.375-18.708 25.791-34.411 36.276-41.483C153.129 1.022 271.863-11.493 290.849-1.295c9.467 5.086 14.03 32.489 14.075 82.761 16.33 2.204 28.952 16.43 28.952 33.685 0 14.818-9.308 27.401-22.279 32.057a555.692 555.692 0 0 1 2.089 15.285l.196 1.611c5.151 42.88 5.009 85.081.278 94.077-4.515 8.583-25.967 15.186-50.525 15.735l-.866.016 6.33 43.629 19.66 20.005 51.095 4.499c27.156 2.392 52.639 15.127 71.895 35.93 78.356 84.655 130.826 147.531 157.431 188.666.143.221.213.474.214.725 6.801 9.48 12.04 19.634 15.529 29.7 4.089 11.796 5.395 22.626 3.67 28.656-1.905 6.653-8.344 15.232-17.446 22.057-11.609 8.706-26.613 14.18-44.496 15.115-19.836 1.036-42.093-3.411-66.759-13.94l.447-.113-4.278 1.053c-141.346 34.704-221.583 47.359-241.585 37.915-9.509-4.489-26.547-17.462-51.146-38.939l-77.675-.002a1.163 1.163 0 0 1-.969-.564ZM47.841 373.557C11.77 394.282-5.83 440.896 8.178 483.751a94.663 94.663 0 0 0 4.358 10.974l.51 1.061 73.337 150.546 74.031.003-3.263-2.878c-26.429-23.393-60.774-55.689-103.067-96.909a1.35 1.35 0 0 1-.085-1.805 1.125 1.125 0 0 1 1.672-.092l5.164 5.028 4.983 4.839 4.81 4.66c77.942 75.415 126.287 117.572 144.796 126.31 19.304 9.114 99.806-3.602 240.629-38.192-32.286-14.459-68.62-39.181-108.97-75.462l-1.956-1.766-1.891-.283-4.482-.683c-18.001-2.772-36.856-6.068-56.565-9.889l-2.29-.445-45.862 6.203c-.609.082-1.167-.349-1.301-.98l-.021-.129c-.077-.656.323-1.259.908-1.403l.119-.023 44.09-5.965-1.492-2.293c-86.308-132.126-162.524-192.245-228.5-180.621Zm387.768 145.102-21.755 2.417c-13.06 1.461-25.36 2.854-36.9 4.181l-.007.087-9.224 61.104c30.845 25.721 59.32 44.418 85.439 56.641 27.713 12.969 52.197 18.38 73.375 17.273 17.441-.911 32.016-6.229 43.26-14.661 8.695-6.521 14.8-14.653 16.534-20.713 1.54-5.384.298-15.691-3.624-27.006-4.653-13.419-12.502-27.022-23.08-38.9-27.4-30.769-68.872-46.512-124.018-40.423Zm-61.091 6.879-15.97 1.854-6.103.719-5.551 40.222 1.264 1.14a687.384 687.384 0 0 0 17.437 15.193l8.923-59.128Zm-24.507 2.86-8.391.996-10.102 1.217-4.84.59.032-.011a1.106 1.106 0 0 1-.488.067l-11.45 1.416c-19.252 2.409-34.485 4.465-45.697 6.167a1157.766 1157.766 0 0 1 11.546 17.47l-.479-.091 4.83.936c20.852 4.01 40.737 7.43 59.656 10.259l5.383-39.016ZM289.15 340.164l-17.868 75.522c-.257 1.084-1.572 1.297-2.127.402l-.064-.117-6.135-12.411-5.239 3.802 46.691 124.05 9.103-1.154 11.2-1.389-14.917-46.403c-.231-.718.167-1.482.833-1.659l.121-.025 67.233-10.219c.52-.08 1.021.22 1.237.725l.046.121 15.818 49.211 15.846-1.785 10.683-1.19-39.142-80.588c-.304-.624-.08-1.397.499-1.724.54-.306 1.199-.116 1.532.418l.066.12 39.581 81.492 6.653-.741 4.569-.505c52.511-5.799 92.947 8.009 120.794 35.727-28.842-40.632-77.545-97.988-146.089-172.043-18.67-20.171-43.318-32.597-69.615-35.115l-.798-.074-50.511-4.448Zm88.196 133.074-64.845 9.857 14.619 45.48 12.016-1.454c15.84-1.9 33.682-3.976 53.528-6.227l-15.318-47.656ZM131.214 340.727l-71.74 27.315a82.15 82.15 0 0 0-4.811 2.009c55.419-5.455 117.346 37.458 185.862 128.588l.78-89.05-5.797-1.979-2.679 12.866c-.179.859-1.084 1.258-1.763.815l-.1-.072-99.752-80.492Zm19.364-31.473-17.572 29.729 97.914 79.008 11.509-55.274-91.851-53.463Zm117.676 10.96-23.114 41.872 24.602 49.776 17.189-72.645-18.677-19.003Zm2.944-202.933-9.549.767c.148 1.213.234 2.446.254 3.695l.005.562c0 18.785-14.96 33.981-33.38 33.981-17.748 0-32.284-14.108-33.321-31.941l-34.15 18.519-.009.437c-.024 1.137-1.295 1.657-2.013.883l-.078-.092-.804-1.034-.801-1.022c-9.4-11.945-15.993-18.61-19.526-19.872-2.479-.885-10.543 2.059-18.602 6.9l-.89.543-.873.547-.841.541c-7.494 4.893-12.886 10.23-13.919 14.233-1.309 5.07.937 16.544 5.498 27.148 5.258 12.225 12.448 21.087 20.036 23.5 11.263 3.583 20.725 1.004 28.576-7.772a1.125 1.125 0 0 1 1.675-.031c.469.49.482 1.299.029 1.807-3.322 3.712-6.936 6.403-10.834 8.072l.016.09.01.131 3.622 108.916 92.016 53.557 23.411-42.413-1.956-13.484c-29.309-6.881-53.375-24.003-72.2-51.364l-.573-.841a1.355 1.355 0 0 1 .012-1.607c.415-.545 1.162-.624 1.666-.175 16.35 14.525 42.185 21.518 69.882 20.9l1.421-.039c23.161-.749 43.225-7.049 47.093-14.404 4.371-8.309 4.51-50.213-.566-92.486a562.272 562.272 0 0 0-2.227-16.499 32.795 32.795 0 0 1-8.812 1.198c-2.204 0-4.38-.218-6.506-.645l1.861 2.765.541.815.462.715.168.271c1.441 2.439-4.259 8.479-19.054 21.602-.504.448-1.251.369-1.665-.175-.415-.546-.342-1.35.162-1.799l2.1-1.871 1.539-1.386 1.465-1.331 1.448-1.329 1.438-1.336 1.433-1.351.898-.859.945-.914.888-.874c.717-.711 1.375-1.377 1.975-2.001l.528-.554.55-.59.511-.56c.977-1.087 1.705-1.988 2.18-2.692a6.13 6.13 0 0 0 .458-.779l.041-.093-.709-1.084-2.503-3.718-5.806-8.503-10.646-15.487-3.623-5.257a1.35 1.35 0 0 1-.213-.526l-.018-.143-.146-2.162Zm-21.803 73.263.121.011 26.692 3.811c.649.092 1.104.733 1.019 1.433-.081.656-.609 1.13-1.209 1.109l-.12-.01-26.692-3.811c-.648-.092-1.104-.734-1.018-1.434.08-.655.608-1.129 1.207-1.109Zm-117.242-51.207c7.103 6.083 11.903 15.007 14.408 26.724.146.688-.25 1.374-.888 1.532-.637.159-1.272-.269-1.419-.957-1.402-6.557-3.538-12.164-6.408-16.828-3.73 3.482-6.237 6.853-7.531 10.093-.26.648-.956.946-1.556.667-.6-.279-.877-1.031-.618-1.679 1.472-3.684 4.251-7.401 8.325-11.171a34.782 34.782 0 0 0-5.785-6.379c-.511-.438-.597-1.241-.191-1.794.406-.553 1.151-.646 1.663-.208Zm96.375-48.458c-17.143 0-31.012 14.088-31.012 31.426 0 17.339 13.869 31.426 31.012 31.426 17.144 0 31.013-14.087 31.013-31.426a32.08 32.08 0 0 0-.357-4.782 1.304 1.304 0 0 1-.158-.546 1.389 1.389 0 0 1 .014-.317c-2.622-14.65-15.274-25.781-30.512-25.781Zm66.431-6.653-.069.013c-9.741 1.807-18.085 8.253-22.387 17.369l1.177 17.277 13.774 20.023 4.397 6.43.399.117a30.677 30.677 0 0 0 8.246 1.122c2.921 0 5.748-.409 8.426-1.173-3.459-22.304-8.133-43.01-13.963-61.178Zm9.963-.184-.001.583c-.022 7.813-.149 16.158-.379 25.037a1.322 1.322 0 0 1-.037.284c2.584 11.008 4.82 22.625 6.702 34.707 11.856-4.421 20.302-15.972 20.302-29.502 0-15.819-11.545-28.931-26.587-31.109Zm-30.947-45.896-1.057.744c-32.786 22.93-69.159 35.494-109.096 37.688l-1.391.07-1.314 63.324 34.04-18.459c.41-18.232 14.912-32.89 32.82-33.185l.551-.004c16.141 0 29.624 11.668 32.714 27.194l9.781-.785-1.378-20.248c-.049-.704.441-1.316 1.093-1.368.611-.048 1.148.413 1.252 1.05l.015.13.193 2.82c4.905-7.973 12.858-13.548 21.964-15.333-.321-.974-.646-1.939-.974-2.896-5.63-1.997-13.121-2.212-18.107-.57-.626.207-1.287-.174-1.478-.848-.191-.675.162-1.39.787-1.595 4.939-1.627 11.948-1.599 17.75.021-5.243-14.7-11.31-27.474-18.165-37.75Zm-36.148 64.485c.655 0 1.184.573 1.184 1.278 0 .706-.529 1.277-1.184 1.277-1.378 0-2.714.062-4.01.183 1.581 1.981 2.849 5.838 3.216 10.359.547 6.747-1.121 12.416-3.726 12.663-2.606.245-5.16-5.025-5.708-11.773-.347-4.293.201-8.15 1.317-10.451-3.415.812-6.494 2.126-9.239 3.941-.558.369-1.286.18-1.628-.422-.341-.601-.166-1.388.391-1.757 5.351-3.536 11.82-5.298 19.387-5.298Zm59.807-5.1c.649.09 1.108.73 1.025 1.43-.082.7-.674 1.194-1.323 1.105a43.582 43.582 0 0 0-6.325-.426c1.84 1.701 3.375 5.926 3.785 10.978.548 6.747-1.121 12.416-3.726 12.663-2.605.245-5.16-5.025-5.707-11.773-.419-5.165.461-9.698 2.065-11.65a27.92 27.92 0 0 0-5.527 1.186c-.626.205-1.287-.178-1.476-.852-.19-.676.163-1.389.789-1.593 4.779-1.563 10.254-1.914 16.42-1.067Zm-60.378-19.203c.655 0 1.184.572 1.184 1.278 0 .705-.529 1.277-1.184 1.277-18.222 0-33.673 5.88-46.407 17.644-.497.459-1.244.397-1.669-.14-.424-.535-.367-1.342.13-1.801 13.173-12.17 29.172-18.258 47.946-18.258Z" clip-rule="evenodd"/>
  </g>
  <defs>
    <clipPath id="a">
      <path fill="#fff" d="M0 0h589v697H0z"/>
    </clipPath>
  </defs>
</svg>
