<svg xmlns="http://www.w3.org/2000/svg" width="1920" height="1080" viewBox="0 0 1920 1080">
  <defs>
    <style>
      .cls-1, .cls-2 {
        fill: none;
        stroke: #fff;
        stroke-width: 2px;
      }

      .cls-2 {
        fill-rule: evenodd;
      }
    </style>
  </defs>
  <circle class="cls-1" cx="1915" r="385"/>
  <path id="Ellipse_1_copy" data-name="Ellipse 1 copy" class="cls-2" d="M1920-565.531c312.33,0,565.53,253.2,565.53,565.531S2232.33,565.531,1920,565.531,1354.47,312.334,1354.47,0,1607.67-565.531,1920-565.531Z"/>
  <path id="Ellipse_1_copy_2" data-name="Ellipse 1 copy 2" class="cls-2" d="M956.806,853.1c157.074,0,284.4,127.331,284.4,284.4s-127.33,284.4-284.4,284.4-284.4-127.33-284.4-284.4S799.736,853.1,956.806,853.1Z"/>
  <circle id="Ellipse_1_copy_2-2" data-name="Ellipse 1 copy 2" class="cls-1" cx="960.5" cy="1137.5" r="417.75"/>
  <path id="Ape_1" data-name="Ape 1" class="cls-2" d="M239.185,491.632c-12.608.636-22.653-1.032-30.857-6.384q-0.792-4.788-1.582-9.577c3.827-7.985,8.447-10.137,15.032-15.16-17.343-11.951-3.008-23.434-8.7-40.7v1.6c-5.842,10.865-13.763,20.351-18.2,31.121q-3.561,10.772-7.121,21.545c-8.706,15.089-24.823,25.3-30.857,43.888,11.852,6.345,25.04,16.043,32.439,27.132-4.516,35.772-62.081,17.333-79.912,4.788-4.885-15.289,4.24-55.468,12.66-67.828,7.235-10.622,16.8-12.745,18.989-29.525,0.6-4.628,2.689-42.562,2.373-43.89-2.4-10.09-11.363-16.061-13.45-27.928q3.561-37.5,7.121-75.009c3.932-18.892,21.892-73.316,31.648-86.98,4.6-6.445,14.192-8.02,20.571-12.768l20.572-23.938,34.813-23.94c4.906-6.935,3.538-17.872,6.33-27.13,5.1-16.9,22.641-33.367,41.143-36.708,20.348-3.674,47.64,32.377,57.758,43.09q-1.978,7.98-3.956,15.96c7.694,5.416,24.092,27.716,19.78,40.7-4.232,8.459-14.848,10.064-17.407,20.746q-0.394,36.705-.791,73.415c-1.693,38.394-7.651,61.6,5.538,95.756q18.2,39.5,36.4,79,0.4,14.762.791,29.525c5.638,35.506-21.85,35.988-49.846,28.728-2.467-3.648-4.126-6.072-4.747-11.971l2.373-1.595c4.31,0.789,4.424,1.96,7.122,3.99-0.087-5.289.617-6.749,2.373-9.576q4.352-1.6,8.7-3.192c-3.059-8.133-1.373-28.194-4.748-33.515q-11.867-9.174-23.736-18.353c-11.206-9.013-22.029-28.194-26.9-43.091h-0.792c2.416,19.691,2.219,38.367-6.329,52.667-6.987,11.685-18.645,21.095-19.78,38.3q13.055-1.6,26.109-3.191c13.224,3.454,19.937,23.616,11.869,36.706-20.978,8.65-44.393-.149-67.253-4.788C239.33,515.953,238.931,505.588,239.185,491.632Zm38.769-152.413-18.989,17.554c9.891,13.139,24.389,21.779,34.813,35.112q-3.956-9.178-7.912-18.353Q281.91,356.375,277.954,339.219Z"/>
</svg>
